<?xml version="1.0" encoding="UTF-8" standalone="no"?>
<!-- Created with Inkscape (http://www.inkscape.org/) -->

<svg
   xmlns:dc="http://purl.org/dc/elements/1.1/"
   xmlns:cc="http://creativecommons.org/ns#"
   xmlns:rdf="http://www.w3.org/1999/02/22-rdf-syntax-ns#"
   xmlns:svg="http://www.w3.org/2000/svg"
   xmlns="http://www.w3.org/2000/svg"
   xmlns:sodipodi="http://sodipodi.sourceforge.net/DTD/sodipodi-0.dtd"
   xmlns:inkscape="http://www.inkscape.org/namespaces/inkscape"
   width="138.28889mm"
   height="138.28889mm"
   viewBox="0 0 490.00002 490.00002"
   id="svg2"
   version="1.1"
   inkscape:version="0.91 r13725"
   sodipodi:docname="Philippine Red Cross.svg">
  <defs
     id="defs4" />
  <sodipodi:namedview
     id="base"
     pagecolor="#ffffff"
     bordercolor="#666666"
     borderopacity="1.0"
     inkscape:pageopacity="0.0"
     inkscape:pageshadow="2"
     inkscape:zoom="0.25522135"
     inkscape:cx="439.61508"
     inkscape:cy="601.97751"
     inkscape:document-units="px"
     inkscape:current-layer="layer1"
     showgrid="false"
     inkscape:snap-object-midpoints="true"
     fit-margin-top="0"
     fit-margin-left="0"
     fit-margin-right="0"
     fit-margin-bottom="0"
     inkscape:window-width="1366"
     inkscape:window-height="705"
     inkscape:window-x="-4"
     inkscape:window-y="-4"
     inkscape:window-maximized="1" />
  <metadata
     id="metadata7">
    <rdf:RDF>
      <cc:Work
         rdf:about="">
        <dc:format>image/svg+xml</dc:format>
        <dc:type
           rdf:resource="http://purl.org/dc/dcmitype/StillImage" />
        <dc:title></dc:title>
      </cc:Work>
    </rdf:RDF>
  </metadata>
  <g
     inkscape:label="Layer 1"
     inkscape:groupmode="layer"
     id="layer1"
     transform="translate(-29.326721,-680.00055)">
    <g
       id="g4715"
       transform="matrix(0.51169272,0,0,0.51169272,14.320451,571.31978)">
      <circle
         r="478.80298"
         cy="691.19757"
         cx="508.1297"
         id="path4154-8"
         style="fill:#0038a8;fill-opacity:1;stroke:none;stroke-width:2.39401507;stroke-linecap:round;stroke-linejoin:miter;stroke-miterlimit:4;stroke-dasharray:none;stroke-dashoffset:0;stroke-opacity:1" />
      <circle
         r="320"
         cy="691.19757"
         cx="508.1297"
         id="path4154"
         style="fill:#ffffff;fill-opacity:1;stroke:none;stroke-width:2;stroke-linecap:round;stroke-linejoin:miter;stroke-miterlimit:4;stroke-dasharray:none;stroke-dashoffset:0;stroke-opacity:1" />
      <path
         inkscape:connector-curvature="0"
         id="path4453"
         d="m 448.37765,819.51754 0,-69.54747 -68.56793,0 -68.56793,0 0,-58.77251 0,-58.77252 68.56793,0 68.56793,0 0,-69.54747 0,-69.54747 58.74745,0 58.74744,0 0.51484,69.0577 0.51483,69.0577 69.0577,0.51484 69.0577,0.51483 0,58.72239 0,58.72237 -69.0577,0.51485 -69.0577,0.51483 -0.51483,69.0577 -0.51484,69.05775 -58.74744,0 -58.74745,0 0,-69.54752 z"
         style="fill:#ce1126;fill-opacity:1;stroke:none;stroke-width:2;stroke-linecap:round;stroke-linejoin:miter;stroke-miterlimit:4;stroke-dasharray:none;stroke-dashoffset:0;stroke-opacity:1" />
      <path
         d="M 195.17737,536.92899 A 348.90967,348.90967 0 0 1 537.71641,343.54461 348.90967,348.90967 0 0 1 842.65036,592.03163 L 508.1297,691.19757 Z"
         sodipodi:end="5.994996"
         sodipodi:start="3.5995811"
         sodipodi:ry="348.90967"
         sodipodi:rx="348.90967"
         sodipodi:cy="691.19757"
         sodipodi:cx="508.1297"
         sodipodi:type="arc"
         id="path4154-0"
         style="fill:none;fill-opacity:1;stroke:none;stroke-width:2.18068528;stroke-linecap:round;stroke-linejoin:miter;stroke-miterlimit:4;stroke-dasharray:none;stroke-dashoffset:0;stroke-opacity:1" />
      <g
         id="text4576"
         style="font-style:normal;font-variant:normal;font-weight:normal;font-stretch:normal;font-size:137.5px;line-height:0%;font-family:'Swis721 Hv BT';-inkscape-font-specification:'Swis721 Hv BT';text-align:start;letter-spacing:3px;word-spacing:0px;writing-mode:lr-tb;text-anchor:start;fill:#ffffff;fill-opacity:1;stroke:none;stroke-width:1px;stroke-linecap:butt;stroke-linejoin:miter;stroke-opacity:1">
        <path
           id="path4695"
           style="font-style:normal;font-variant:normal;font-weight:bold;font-stretch:normal;font-size:137.5px;line-height:0%;font-family:'Swis721 BT';-inkscape-font-specification:'Swis721 BT Bold';letter-spacing:-32px;fill:#ffffff;fill-opacity:1"
           d="m 165.50254,480.33484 10.93474,-16.35251 q 4.44107,-6.64146 3.66582,-11.52123 -0.83107,-4.91709 -7.08186,-9.09692 -5.86011,-3.9186 -10.85184,-2.97591 -4.99173,0.94269 -8.91032,6.8028 l -11.53186,17.24548 23.77532,15.89829 z m 14.82679,10.07604 29.24476,19.55564 -11.30794,16.91062 -82.20903,-54.97226 24.44456,-36.55595 q 8.65822,-12.94806 19.85238,-15.07381 11.17566,-2.21888 24.17953,6.47666 12.72482,8.50895 15.27891,19.66646 2.49827,11.12019 -5.60015,23.23109 l -13.88302,20.76155 z"
           inkscape:connector-curvature="0" />
        <path
           id="path4697"
           style="font-style:normal;font-variant:normal;font-weight:bold;font-stretch:normal;font-size:137.5px;line-height:0%;font-family:'Swis721 BT';-inkscape-font-specification:'Swis721 BT Bold';letter-spacing:-32px;fill:#ffffff;fill-opacity:1"
           d="m 244.29677,459.20396 -66.13606,-73.52751 15.22464,-13.69416 24.64949,27.40435 30.34944,-27.29852 -24.64949,-27.40435 15.22464,-13.69416 66.13606,73.52751 -15.22464,13.69416 -29.31897,-32.5957 -30.34944,27.29852 29.31897,32.5957 -15.22464,13.69416 z"
           inkscape:connector-curvature="0" />
        <path
           id="path4699"
           style="font-style:normal;font-variant:normal;font-weight:bold;font-stretch:normal;font-size:137.5px;line-height:0%;font-family:'Swis721 BT';-inkscape-font-specification:'Swis721 BT Bold';letter-spacing:-32px;fill:#ffffff;fill-opacity:1"
           d="m 327.68232,392.39855 -48.62744,-86.11414 17.71391,-10.00279 48.62744,86.11414 -17.71391,10.00279 z"
           inkscape:connector-curvature="0" />
        <path
           id="path4701"
           style="font-style:normal;font-variant:normal;font-weight:bold;font-stretch:normal;font-size:137.5px;line-height:0%;font-family:'Swis721 BT';-inkscape-font-specification:'Swis721 BT Bold';letter-spacing:-32px;fill:#ffffff;fill-opacity:1"
           d="m 367.71836,370.40773 -31.85333,-93.62498 19.25891,-6.55232 25.97138,76.33646 45.70018,-15.54823 5.88195,17.28852 -64.95909,22.10055 z"
           inkscape:connector-curvature="0" />
        <path
           id="path4703"
           style="font-style:normal;font-variant:normal;font-weight:bold;font-stretch:normal;font-size:137.5px;line-height:0%;font-family:'Swis721 BT';-inkscape-font-specification:'Swis721 BT Bold';letter-spacing:-32px;fill:#ffffff;fill-opacity:1"
           d="m 455.96118,346.04011 -11.90115,-98.17655 20.19517,-2.4481 11.90116,98.17656 -20.19518,2.44809 z"
           inkscape:connector-curvature="0" />
        <path
           id="path4705"
           style="font-style:normal;font-variant:normal;font-weight:bold;font-stretch:normal;font-size:137.5px;line-height:0%;font-family:'Swis721 BT';-inkscape-font-specification:'Swis721 BT Bold';letter-spacing:-32px;fill:#ffffff;fill-opacity:1"
           d="m 526.21371,289.299 19.60414,1.62818 q 7.96209,0.66127 11.85298,-2.38407 3.89645,-3.11225 4.51883,-10.60598 0.58347,-7.02537 -2.66259,-10.93294 -3.24607,-3.90756 -10.27144,-4.49104 l -20.67467,-1.71709 -2.36725,28.50294 z m -1.61751,17.85341 -2.91183,35.05995 -20.27322,-1.68375 8.18535,-98.55594 43.82494,3.63979 q 15.52273,1.2892 22.81243,10.04638 7.36217,8.69583 6.0674,24.28547 -1.26697,15.25509 -9.7843,22.90156 -8.51178,7.57956 -23.03088,6.37371 l -24.88989,-2.06717 z"
           inkscape:connector-curvature="0" />
        <path
           id="path4707"
           style="font-style:normal;font-variant:normal;font-weight:bold;font-stretch:normal;font-size:137.5px;line-height:0%;font-family:'Swis721 BT';-inkscape-font-specification:'Swis721 BT Bold';letter-spacing:-32px;fill:#ffffff;fill-opacity:1"
           d="m 618.71792,304.37243 18.69584,6.11872 q 7.59319,2.48508 12.08299,0.42235 4.51068,-2.12655 6.84958,-9.27308 2.19272,-6.69987 -0.0614,-11.25232 -2.25416,-4.55245 -8.95403,-6.74516 l -19.71677,-6.45285 -8.89617,27.18234 z m -5.70338,16.99505 -10.94269,33.43556 -19.33392,-6.32755 30.76067,-93.98965 41.79445,13.67837 q 14.80353,4.84486 19.86987,15.05074 5.15104,10.16296 0.2853,25.0303 -4.76133,14.5483 -14.8164,20.01722 -10.03418,5.40511 -23.88058,0.87349 l -23.7367,-7.76848 z"
           inkscape:connector-curvature="0" />
        <path
           id="path4709"
           style="font-style:normal;font-variant:normal;font-weight:bold;font-stretch:normal;font-size:137.5px;line-height:0%;font-family:'Swis721 BT';-inkscape-font-specification:'Swis721 BT Bold';letter-spacing:-32px;fill:#ffffff;fill-opacity:1"
           d="m 666.24478,379.98972 47.37403,-86.80999 17.85705,9.74497 -47.37404,86.80998 -17.85704,-9.74496 z"
           inkscape:connector-curvature="0" />
        <path
           id="path4711"
           style="font-style:normal;font-variant:normal;font-weight:bold;font-stretch:normal;font-size:137.5px;line-height:0%;font-family:'Swis721 BT';-inkscape-font-specification:'Swis721 BT Bold';letter-spacing:-32px;fill:#ffffff;fill-opacity:1"
           d="m 706.80363,401.48785 65.02566,-74.51132 16.03536,13.99398 -14.42512,77.5905 44.67479,-51.19176 15.12484,13.19937 -65.02566,74.51132 -15.83302,-13.8174 14.22277,-77.76708 -44.67479,51.19176 -15.12483,-13.19937 z"
           inkscape:connector-curvature="0" />
        <path
           id="path4713"
           style="font-style:normal;font-variant:normal;font-weight:bold;font-stretch:normal;font-size:137.5px;line-height:0%;font-family:'Swis721 BT';-inkscape-font-specification:'Swis721 BT Bold';letter-spacing:-32px;fill:#ffffff;fill-opacity:1"
           d="m 783.87991,474.60561 83.42592,-53.10734 38.54157,60.54468 -14.499,9.22979 -27.76148,-43.61029 -17.78393,11.32091 25.38192,39.87227 -14.27246,9.08557 -25.38192,-39.87227 -21.46533,13.66442 29.05942,45.64921 -15.4052,9.80665 -39.83951,-62.5836 z"
           inkscape:connector-curvature="0" />
      </g>
      <path
         sodipodi:open="true"
         d="M 110.77275,-899.39879 A 448.59814,448.59814 0 0 1 548.2411,-1137.9988 448.59814,448.59814 0 0 1 936.21637,-825.29493"
         sodipodi:end="5.979619"
         sodipodi:start="3.6242281"
         sodipodi:ry="448.59814"
         sodipodi:rx="448.59814"
         sodipodi:cy="-691.19757"
         sodipodi:cx="508.1297"
         sodipodi:type="arc"
         transform="scale(1,-1)"
         id="path4154-0-6"
         style="fill:none;fill-opacity:1;stroke:none;stroke-width:2.80373812;stroke-linecap:round;stroke-linejoin:miter;stroke-miterlimit:4;stroke-dasharray:none;stroke-dashoffset:0;stroke-opacity:1" />
      <g
         id="text4601"
         style="font-style:normal;font-variant:normal;font-weight:bold;font-stretch:normal;font-size:60px;line-height:125%;font-family:'Swis721 BT';-inkscape-font-specification:'Swis721 BT, Bold';text-align:start;letter-spacing:0px;word-spacing:0px;writing-mode:lr-tb;text-anchor:start;fill:#000000;fill-opacity:1;stroke:none;stroke-width:1px;stroke-linecap:butt;stroke-linejoin:miter;stroke-opacity:1">
        <path
           id="path4678"
           style="font-size:137.5px;letter-spacing:25px;fill:#ffffff;fill-opacity:1"
           d="m 171.71934,895.11118 13.33695,19.83434 q 4.34575,6.46288 8.98735,7.71068 4.67906,1.30351 10.30622,-2.48028 5.34859,-3.59649 6.09304,-8.38506 0.80016,-4.82603 -3.13349,-10.67604 l -13.86144,-20.61435 -21.72863,14.61071 z m -57.53867,14.17565 82.06737,-55.18352 26.74883,39.78011 q 9.02867,13.42717 7.63583,23.74877 -1.39283,10.3216 -13.20429,18.26384 -7.52145,5.05755 -14.67116,5.25353 -7.11225,0.25169 -12.92194,-4.41775 1.70219,6.62234 -0.69929,11.47335 -2.36401,4.90673 -10.38497,10.78559 l -9.46953,6.85291 q -0.11143,0.0749 -0.33428,0.22478 -7.24192,5.11231 -6.7789,9.16986 l -2.50715,1.68586 -12.43784,-18.4972 q 1.12774,-2.05279 3.29772,-4.24007 2.26315,-2.16903 5.69824,-4.64065 l 8.48588,-6.02968 q 7.44556,-5.41105 8.35908,-9.82787 0.95098,-4.36111 -3.58209,-11.10255 l -12.02574,-17.88434 -31.92437,21.46651 -11.3514,-16.88148 z"
           inkscape:connector-curvature="0" />
        <path
           id="path4680"
           style="font-size:137.5px;letter-spacing:25px;fill:#ffffff;fill-opacity:1"
           d="m 188.36638,1007.7584 64.70148,-74.79295 54.27951,46.95579 -11.2448,12.99865 -39.09749,-33.82223 -13.79244,15.94365 35.74628,30.92319 -11.06909,12.7955 -35.74628,-30.92314 -16.64756,19.24404 40.92542,35.4036 -11.94759,13.811 -56.10744,-48.5371 z"
           inkscape:connector-curvature="0" />
        <path
           id="path4682"
           style="font-size:137.5px;letter-spacing:25px;fill:#ffffff;fill-opacity:1"
           d="m 304.34117,1071.1954 14.71601,7.0433 q 12.7781,6.1158 21.65904,2.1788 8.9705,-3.9686 16.15874,-18.9874 7.15926,-14.9582 5.19225,-24.5338 -1.96701,-9.5756 -13.29167,-14.9958 l -16.95672,-8.1157 -27.47765,57.4106 z m -25.69621,7.5003 42.6947,-89.20442 34.94296,16.72422 q 20.52974,9.8259 25.27842,25.7198 4.80924,15.9229 -5.97313,38.4511 -5.85494,12.2331 -14.07331,19.7622 -8.15781,7.5582 -17.96788,9.8595 -7.35819,1.6886 -15.03941,0.3196 -7.65223,-1.4295 -19.8853,-7.2845 l -29.97705,-14.3475 z"
           inkscape:connector-curvature="0" />
        <path
           id="path4684"
           style="font-size:137.5px;letter-spacing:25px;fill:#ffffff;fill-opacity:1"
           d="m 544.07922,1106.7196 q -1.50944,16.8228 -13.60734,26.4972 -12.03077,9.6759 -31.0936,9.2591 -21.9491,-0.4799 -33.86605,-14.44 -11.84982,-13.9586 -11.30977,-38.6597 0.55179,-25.2381 13.26299,-38.3912 12.71119,-13.153 36.00274,-12.6438 18.92858,0.4139 29.66705,9.916 10.80706,9.4365 11.51268,26.3077 l -20.06967,-0.4388 q -1.09189,-8.4182 -6.56768,-12.9029 -5.47432,-4.5519 -14.93861,-4.7589 -13.42453,-0.2935 -20.59459,8.2127 -7.17007,8.5062 -7.53401,25.1526 -0.35221,16.1095 6.36918,25.0537 6.7885,8.9457 19.60893,9.226 9.26292,0.2025 15.27244,-4.367 6.01098,-4.6365 7.94989,-13.4585 l 19.93542,0.4358 z"
           inkscape:connector-curvature="0" />
        <path
           id="path4686"
           style="font-size:137.5px;letter-spacing:25px;fill:#ffffff;fill-opacity:1"
           d="m 590.13157,1075.95 23.1159,-6.077 q 7.53215,-1.9802 10.23619,-5.9538 2.76897,-3.9907 1.04486,-10.5489 -1.63876,-6.2335 -5.91662,-8.5104 -4.29493,-2.3419 -11.11282,-0.5495 l -24.02495,6.316 6.65744,25.3236 z m -5.52315,59.0012 -25.14465,-95.6453 46.36166,-12.1882 q 15.64869,-4.114 24.93908,0.5939 9.2904,4.7079 12.90932,18.4735 2.30449,8.7659 0.13969,15.5828 -2.09988,6.7998 -8.41938,10.7521 6.81389,0.5689 10.60611,4.4313 3.85715,3.8454 6.77316,13.353 l 3.35983,11.1958 q 0.0341,0.1298 0.10243,0.3896 2.44808,8.5198 6.4324,9.4161 l 0.76816,2.922 -21.55752,5.6673 q -1.5681,-1.7397 -2.92066,-4.5081 -1.30469,-2.8503 -2.50999,-6.9069 l -2.90564,-9.9962 q -2.6633,-8.8104 -6.53449,-11.1248 -3.80627,-2.3315 -11.66307,-0.266 l -20.84327,5.4796 9.78132,37.2062 -19.67449,5.1723 z"
           inkscape:connector-curvature="0" />
        <path
           id="path4688"
           style="font-size:137.5px;letter-spacing:25px;fill:#ffffff;fill-opacity:1"
           d="m 690.96105,1047.2108 q 8.43862,13.9628 19.33241,17.9694 10.85907,3.9492 22.00631,-2.7878 11.26216,-6.8065 12.8719,-18.2914 1.57502,-11.5423 -6.86359,-25.5051 -8.43862,-13.9627 -19.35515,-17.8771 -10.95126,-3.97192 -22.21342,2.8345 -11.14723,6.737 -12.69952,18.1872 -1.55228,11.4501 6.92106,25.4703 z m -17.75514,10.7306 q -12.39747,-20.5132 -8.50814,-39.2593 3.91207,-18.83836 22.87386,-30.2982 18.9618,-11.45985 37.45913,-6.16499 18.55478,5.26015 30.91753,25.71589 12.36275,20.4558 8.39322,39.3288 -3.91207,18.8383 -22.87386,30.2982 -18.96179,11.4598 -37.45912,6.165 -18.43987,-5.3296 -30.80262,-25.7854 z"
           inkscape:connector-curvature="0" />
        <path
           id="path4690"
           style="font-size:137.5px;letter-spacing:25px;fill:#ffffff;fill-opacity:1"
           d="m 787.10011,1005.2335 13.63948,-14.72917 q 6.73613,4.68221 13.38315,3.33417 6.59776,-1.39365 13.66839,-9.02918 6.02144,-6.50251 6.76249,-11.94703 0.74105,-5.44451 -3.791,-9.64128 -6.60104,-6.11267 -28.49859,8.83869 l -0.50907,0.35212 q -0.5547,0.40138 -1.75896,1.20779 -11.61387,8.09509 -18.3868,9.87555 -6.0212,1.56155 -12.02946,-0.25056 -6.05752,-1.85773 -11.72259,-7.10368 -10.59121,-9.80765 -9.54694,-22.20016 0.99501,-12.43813 13.5853,-26.03429 11.76919,-12.70946 24.39355,-14.2871 12.66998,-1.6269 23.97096,8.10598 l -13.27455,14.33509 q -5.63591,-4.48693 -11.77021,-3.39613 -6.1343,1.09079 -12.38382,7.83961 -5.42843,5.86212 -6.07824,11.20811 -0.65346,5.25111 3.58302,9.17418 5.76359,5.33718 20.07062,-4.38166 3.89014,-2.6199 6.06694,-4.08129 9.36406,-6.0608 13.55341,-8.31212 4.23497,-2.30059 7.89514,-3.48639 6.5686,-2.15268 12.71007,-0.58324 6.0922,1.52383 11.75727,6.76979 11.33013,10.4919 10.51571,23.92079 -0.86369,13.38327 -13.72769,27.275 -12.68152,13.69471 -26.24373,15.59341 -13.56221,1.8987 -25.83385,-8.367 z"
           inkscape:connector-curvature="0" />
        <path
           id="path4692"
           style="font-size:137.5px;letter-spacing:25px;fill:#ffffff;fill-opacity:1"
           d="m 859.89515,920.58223 9.32705,-17.77611 q 7.72398,2.76381 13.78956,-0.27079 6.00613,-3.06579 10.84123,-12.28083 4.11763,-7.84765 3.4134,-13.29705 -0.70423,-5.4494 -6.1738,-8.31926 -7.96655,-4.18002 -25.20807,15.96386 l -0.39965,0.47268 q -0.43085,0.53213 -1.38319,1.62465 -9.10133,10.84335 -15.17572,14.32824 -5.40574,3.07754 -11.67866,2.89476 -6.33237,-0.21398 -13.16933,-3.80131 -12.78215,-6.70675 -15.00532,-18.94285 -2.28262,-12.26731 6.32697,-28.67602 8.0481,-15.33859 19.82438,-20.15342 11.80748,-4.87429 25.25535,1.5752 l -9.07751,17.3005 q -6.6109,-2.86216 -12.24857,-0.2096 -5.63768,2.65257 -9.91128,10.79747 -3.7121,7.07478 -2.94549,12.40528 0.73836,5.23985 5.85123,7.92255 6.95586,3.64971 18.23381,-9.46345 3.07243,-3.54362 4.79288,-5.52204 7.45978,-8.29279 10.91719,-11.5586 3.48859,-3.32526 6.71295,-5.42442 5.78007,-3.79096 12.11832,-3.87718 6.27879,-0.11741 13.11575,3.46992 13.67393,7.17466 16.38923,20.35136 2.65584,13.1455 -6.14092,29.91093 -8.67198,16.52762 -21.26995,21.89697 -12.59797,5.36935 -27.12184,-1.34144 z"
           inkscape:connector-curvature="0" />
      </g>
    </g>
    <text
       xml:space="preserve"
       style="font-style:normal;font-variant:normal;font-weight:bold;font-stretch:normal;font-size:60px;line-height:125%;font-family:'Swis721 BT';-inkscape-font-specification:'Swis721 BT, Bold';text-align:start;letter-spacing:5px;word-spacing:0px;writing-mode:lr-tb;text-anchor:start;fill:#000000;fill-opacity:1;stroke:none;stroke-width:1px;stroke-linecap:butt;stroke-linejoin:miter;stroke-opacity:1"
       x="-148.22511"
       y="579.98126"
       id="text4673"
       sodipodi:linespacing="125%"><tspan
         sodipodi:role="line"
         id="tspan4675"
         x="-148.22511"
         y="579.98126" /></text>
  </g>
</svg>
